<?xml version="1.0" encoding="UTF-8" standalone="no"?>
<svg width="979px" height="229px" viewBox="0 0 979 229" version="1.1" xmlns="http://www.w3.org/2000/svg" xmlns:xlink="http://www.w3.org/1999/xlink" xmlns:sketch="http://www.bohemiancoding.com/sketch/ns">
    <!-- Generator: Sketch 3.3 (11970) - http://www.bohemiancoding.com/sketch -->
    <title>logo_akp_1</title>
    <desc>Created with Sketch.</desc>
    <defs>
        <linearGradient x1="27.0150051%" y1="6.28885538%" x2="71.2918041%" y2="95.8993067%" id="linearGradient-1">
            <stop stop-color="#F97844" offset="0%"></stop>
            <stop stop-color="#F35026" offset="100%"></stop>
        </linearGradient>
    </defs>
    <g id="Page-1" stroke="none" stroke-width="1" fill="none" fill-rule="evenodd" sketch:type="MSPage">
        <g id="logo_akp_1" sketch:type="MSLayerGroup" transform="translate(-1.000000, -1.000000)">
            <g id="Page-1">
                <g id="1280x1050-2-copy-3">
                    <g id="Imported-Layers-+-Imported-Layers-Copy-3-+-Shape-Copy" transform="translate(0.314555, 0.614140)" sketch:type="MSShapeGroup">
                        <g id="Imported-Layers" transform="translate(0.153627, 6.265275)">
                            <path d="M223.136856,111.764791 C223.136856,173.072059 173.309293,222.770091 111.842235,222.770091 C50.3760721,222.770091 0.547614631,173.072059 0.547614631,111.764791 C0.547614631,50.4584148 50.3760721,0.760383626 111.842235,0.760383626 C173.309293,0.760383626 223.136856,50.4584148 223.136856,111.764791" id="Fill-1" fill="url(#linearGradient-1)"></path>
                            <path d="M101.874217,80.9460498 L116.021823,117.903193 C125.519179,113.555976 135.709106,108.044087 146.485124,101.089076 L119.973239,33.7174805 L109.059422,33.7174805 L71.0306285,132.336202 C74.6420218,131.840882 78.5558557,131.156358 82.7533398,130.223728 L101.874217,80.9460498" id="Fill-2" fill="#FFFFFF"></path>
                            <path d="M197.308594,70.2212493 C196.033511,67.0217478 192.573338,70.7201395 192.573338,70.7201395 C176.893843,85.2174067 161.96687,96.640118 148.015224,105.646916 C137.240101,112.602819 127.049279,118.114708 117.552818,122.461925 C103.892875,128.716348 91.6628151,132.581631 81.1937118,134.906513 C76.9962278,135.839143 73.0823938,136.523667 69.4710006,137.018987 C51.1285948,139.536643 40.5968559,137.144826 40.5968559,137.144826 L25.9571125,167.14071 C68.3498223,176.186776 102.183816,166.716787 128.216092,150.695183 L135.965913,170.8275 L173.512412,170.8275 L156.76811,128.097867 C184.496022,100.716024 197.308594,70.2212493 197.308594,70.2212493" id="Fill-3" fill="#FFFFFF"></path>
                        </g>
                        <g id="Imported-Layers-Copy-3-+-Shape-Copy" transform="translate(145.557839, 0.910461)">
                            <path d="M62.105917,32.1353989 L68.1344506,26.352859 L60.1807657,23.80062 L64.1276015,16.4409839 L55.7743562,16.4692205 L57.2525576,8.252367 L49.3158922,10.859274 L48.1817742,2.58624006 L41.4410005,7.51623808 L37.8027711,1.42108547e-14 L32.9195008,6.7709192 L27.1353153,0.745945375 L24.5807543,8.69515454 L17.2176149,4.75019657 L17.245865,13.0994675 L9.02420068,11.6221769 L11.6321409,19.5541672 L3.35627588,20.6884369 L8.28972767,27.4266948 L0.768389442,31.0607039 L7.54356992,35.9461453 L1.5153128,41.7257809 L9.46892886,44.2818232 L5.52105484,51.6369647 L13.8756148,51.6103183 L12.3967217,59.8282783 L20.3320725,57.219781 L21.4666746,65.4908096 L28.2078635,60.5626094 L31.8451936,68.079055 L36.7320612,61.3073057 L42.5153475,67.332487 L45.0719147,59.3837617 L52.4305574,63.3297573 L52.4038984,54.9791724 L60.6244557,56.4557716 L58.0147167,48.5241964 L66.2909971,47.3917245 L61.3595516,40.6539505 L68.8802669,37.0172446 L62.105917,32.1353989 L62.105917,32.1353989 Z" id="Imported-Layers-Copy-3" fill="#091070"></path>
                            <path d="M41.4520288,22.9771454 C38.9312373,22.0300576 36.7323711,21.657122 34.8128463,22.1256697 C31.4929081,22.9360522 29.9236218,26.1255753 29.7202261,30.3740608 L41.1271062,27.5896907 L40.5511454,31.9281731 L30.0764606,34.4849984 L30.4623921,36.4897407 L40.4230548,34.0583859 L39.6962443,37.734671 L31.5643467,39.7196321 C33.7028185,44.7954606 36.5555619,46.804511 40.20461,45.9137941 C42.5431561,45.3429651 44.7100719,43.7570002 46.7316455,41.075802 L48.3191723,48.5711505 C46.4601266,50.429586 44.2193828,51.6651701 41.5534233,52.3159193 C37.6244622,53.2749617 34.1386632,52.6465547 31.1624569,50.5098895 C28.4241672,48.5749205 26.3588563,45.8881264 24.6886648,41.3979563 L21.086269,42.2772856 L21.8122312,38.6012075 L23.6825592,38.1446686 C23.3925389,36.8164785 23.2474309,36.1519351 23.2957795,36.1401334 L19.8799923,36.9739123 L20.4610424,32.6341876 L22.843696,32.0525921 C22.7239194,27.8829916 23.6077452,24.496163 25.4382504,21.6027778 C27.3669348,18.4757218 30.1989706,16.5479261 33.8921262,15.6464428 C36.5563893,14.9961077 39.5991058,15.1706201 42.9486887,16.0712658 L41.4520288,22.9771454 L41.4520288,22.9771454 Z" id="Path" fill="#FFFFFF"></path>
                        </g>
                    </g>
                    <text id="Auto" fill="#060D5D" sketch:type="MSTextLayer" font-family="Myriad Pro" font-size="107.676768" font-weight="526">
                        <tspan x="243.068089" y="159.460302" fill="#000000">Auto</tspan>
                    </text>
                    <text id="KredietPlan" fill="#F35026" sketch:type="MSTextLayer" font-family="Myriad Pro" font-size="107.676768" font-weight="normal">
                        <tspan x="470.016776" y="159.460302" fill="#000000">KredietPlan</tspan>
                    </text>
                </g>
            </g>
        </g>
    </g>
</svg>