<?xml version="1.0" encoding="UTF-8" standalone="no"?>
<svg width="28px" height="22px" viewBox="0 0 28 22" version="1.1" xmlns="http://www.w3.org/2000/svg" xmlns:xlink="http://www.w3.org/1999/xlink" xmlns:sketch="http://www.bohemiancoding.com/sketch/ns">
    <!-- Generator: Sketch 3.4.4 (17249) - http://www.bohemiancoding.com/sketch -->
    <title>miu</title>
    <desc>Created with Sketch.</desc>
    <defs></defs>
    <g id="Page-1" stroke="none" stroke-width="1" fill="none" fill-rule="evenodd" sketch:type="MSPage">
        <g id="AKP---750px---Actiepagina---Audi-" sketch:type="MSArtboardGroup" transform="translate(-682.000000, -42.000000)">
            <g id="01_header_menu" sketch:type="MSLayerGroup" transform="translate(0.000000, 1.000000)">
                <g id="phone_strook-2" transform="translate(40.000000, 21.000000)" sketch:type="MSShapeGroup">
                    <g id="mail_envelope" transform="translate(642.000000, 20.000000)">
                        <g id="miu">
                            <g id="common_email_envelope_mail_outline_stroke">
                                <g id="path-1-link" fill="#091070">
                                    <path d="M0,2.71875 L13.6607143,14.953125 L27.3214286,2.71875 L27.3214286,0 L0,0 L0,2.71875 L0,2.71875 Z M1.24188312,1.84856417 L13.6607143,13.1125259 L26.0795455,1.84856415 L26.0795455,1.359375 L1.24188312,1.35937501 L1.24188312,1.84856417 L1.24188312,1.84856417 Z M0,19.3700981 L1.24188312,18.033125 L1.24188312,5.54668809 L0,4.59203911 L0,19.3700981 L0,19.3700981 Z M27.3214286,19.5695572 L26.0795455,18.3357982 L26.0795455,5.63994598 L27.3214286,4.69060707 L27.3214286,19.5695572 L27.3214286,19.5695572 Z M24.1266357,20.2846727 L3.05618393,20.2846727 L9.1849286,13.3409565 L8.07224025,12.234375 L0,21.75 L27.3214286,21.75 L19.2366816,12.234375 L18.1245292,13.3409565 L24.1266357,20.2846727 L24.1266357,20.2846727 Z" id="path-1"></path>
                                </g>
                                <path d="M0,2.71875 L13.6607143,14.953125 L27.3214286,2.71875 L27.3214286,0 L0,0 L0,2.71875 L0,2.71875 Z M1.24188312,1.84856417 L13.6607143,13.1125259 L26.0795455,1.84856415 L26.0795455,1.359375 L1.24188312,1.35937501 L1.24188312,1.84856417 L1.24188312,1.84856417 Z M0,19.3700981 L1.24188312,18.033125 L1.24188312,5.54668809 L0,4.59203911 L0,19.3700981 L0,19.3700981 Z M27.3214286,19.5695572 L26.0795455,18.3357982 L26.0795455,5.63994598 L27.3214286,4.69060707 L27.3214286,19.5695572 L27.3214286,19.5695572 Z M24.1266357,20.2846727 L3.05618393,20.2846727 L9.1849286,13.3409565 L8.07224025,12.234375 L0,21.75 L27.3214286,21.75 L19.2366816,12.234375 L18.1245292,13.3409565 L24.1266357,20.2846727 L24.1266357,20.2846727 Z" id="path-1"></path>
                            </g>
                        </g>
                    </g>
                </g>
            </g>
        </g>
    </g>
</svg>